<?xml version="1.0" encoding="utf-8"?>
<!-- Generator: Adobe Illustrator 24.0.3, SVG Export Plug-In . SVG Version: 6.00 Build 0)  -->
<svg version="1.1" id="Layer_1" xmlns="http://www.w3.org/2000/svg" xmlns:xlink="http://www.w3.org/1999/xlink" x="0px" y="0px"
	 viewBox="0 0 24 24" style="enable-background:new 0 0 24 24;" xml:space="preserve">
<style type="text/css">
	.st0{fill:#FFFFFF;}
</style>
<title>Icons/Navbar/icon_search</title>
<desc>Created with Sketch.</desc>
<path class="st0" d="M23.4,21.9l-4.6-4.6c1.4-1.7,2.3-3.9,2.3-6.3c0-5.5-4.5-10-10-10C5.5,1,1,5.5,1,11c0,5.5,4.5,10,10,10
	c2.4,0,4.6-0.8,6.3-2.3l4.6,4.6L23.4,21.9z M3,11c0-4.4,3.6-8,8-8s8,3.6,8,8c0,2.1-0.8,4.1-2.2,5.5l-0.3,0.3
	C15.1,18.2,13.1,19,11,19C6.6,19,3,15.4,3,11z"/>
</svg>
